<?xml version="1.0" standalone="no"?>
<!DOCTYPE svg PUBLIC "-//W3C//DTD SVG 20010904//EN"
 "http://www.w3.org/TR/2001/REC-SVG-20010904/DTD/svg10.dtd">
<svg version="1.0" xmlns="http://www.w3.org/2000/svg"
 width="323.000000pt" height="323.000000pt" viewBox="0 0 323.000000 323.000000"
 preserveAspectRatio="xMidYMid meet">
<metadata>
Created by potrace 1.11, written by Peter Selinger 2001-2013
</metadata>
<g transform="translate(0.000000,323.000000) scale(0.100000,-0.100000)"
fill="#000000" stroke="none">
<path d="M1538 3139 c-15 -11 -50 -52 -79 -92 -228 -312 -242 -329 -465 -582
-239 -271 -477 -491 -771 -713 -67 -50 -129 -102 -137 -114 -9 -12 -16 -39
-16 -59 0 -48 20 -68 191 -189 256 -182 508 -398 764 -655 209 -209 417 -456
511 -608 29 -47 73 -77 114 -77 31 0 80 54 175 190 219 315 468 591 860 951
79 72 272 228 377 304 53 39 102 80 107 93 30 64 6 101 -119 185 -320 214
-538 398 -829 700 -195 203 -385 422 -496 574 -84 114 -129 136 -187 92z m160
-399 c150 -68 665 -541 894 -820 177 -217 201 -266 173 -352 -40 -124 -236
-369 -530 -664 -176 -177 -351 -329 -463 -405 -114 -76 -168 -69 -325 44 -212
153 -568 474 -725 652 -179 204 -262 328 -262 390 0 62 77 185 227 365 103
123 428 461 537 558 114 102 276 228 310 242 37 15 119 10 164 -10z"/>
<path d="M1569 2676 c-171 -61 -823 -711 -991 -988 -45 -73 -47 -105 -13 -175
36 -71 215 -284 363 -430 193 -192 550 -490 643 -538 43 -23 99 -22 143 1 166
88 656 568 872 855 147 194 148 235 13 404 -232 289 -628 667 -869 830 -75 50
-111 59 -161 41z m46 -253 c3 -16 44 -128 91 -249 46 -122 84 -225 84 -228 0
-3 -7 -3 -15 0 -8 4 -36 3 -62 -1 l-46 -7 6 -111 c4 -62 10 -169 13 -239 l7
-128 -78 0 -78 0 6 240 6 240 -58 0 -58 0 78 241 c44 133 79 248 79 255 0 25
18 15 25 -13z m-201 -674 c-2 -4 -25 -12 -50 -18 -122 -31 -215 -111 -194
-167 33 -87 240 -142 499 -131 227 9 397 65 444 145 25 43 11 80 -46 119 -41
27 -82 33 -150 21 -15 -2 -24 11 -42 60 -14 36 -20 62 -13 62 5 0 47 -9 92
-19 44 -11 108 -25 141 -32 l60 -12 -34 -9 -35 -10 46 -28 c112 -70 124 -149
35 -227 -161 -142 -658 -188 -992 -92 -69 20 -170 76 -203 114 -77 87 -11 198
170 282 98 45 113 45 199 -7 43 -25 75 -48 73 -51z m290 -441 c4 -22 26 -398
26 -445 0 -22 -3 -23 -104 -23 l-104 0 5 203 c2 111 6 221 9 245 l5 42 79 0
c75 0 80 -1 84 -22z"/>
<path d="M2385 532 c-38 -8 -84 -52 -96 -92 -17 -55 1 -111 44 -143 42 -31 69
-38 114 -25 99 27 129 150 54 222 -30 28 -81 45 -116 38z m75 -37 c33 -17 60
-61 60 -97 0 -39 -35 -85 -75 -98 -69 -23 -135 28 -135 104 1 47 14 69 56 91
37 19 57 19 94 0z"/>
<path d="M2354 466 c-10 -25 1 -129 14 -134 7 -2 12 6 12 22 0 35 24 34 55 -1
26 -31 47 -24 26 9 -9 14 -10 23 -2 31 18 18 13 65 -8 77 -28 15 -91 13 -97
-4z m91 -36 c0 -10 -12 -16 -32 -18 -28 -3 -33 0 -33 18 0 18 5 21 33 18 20
-2 32 -8 32 -18z"/>
</g>
</svg>
